<svg width="199" height="139" fill="none" xmlns="http://www.w3.org/2000/svg">
  <g clip-path="url(#a)">
    <path d="M122.68 30.1c-3.5-1.46-15.9-3.8-15.9-7.59s27.27-11.07 27.27-11.07-24.35 4.08-32.66 6.85c-8.3 2.77-4.22 7.87 1.9 10.64 6.12 2.77 5.25 4.52 5.25 4.52-1.02 5.4-31.5 11.52-45.78 14.29l21.29 17.5c5.54-1.76 14.58-4.1 35.57-13.42 30.9-14.14 6.7-20.27 3.06-21.72Z" fill="#06C0B9"/>
    <path d="M94.25 29.8a20.78 20.78 0 0 1-7.29-2.62 20.13 20.13 0 0 0 4.52-4.08 18.1 18.1 0 0 1-8.16-3.65c1.9-.73 3.5-2.18 4.8-3.79a14.55 14.55 0 0 1-11.5-10.93 14.27 14.27 0 0 1-10.94 10.79 13.3 13.3 0 0 0 4.37 3.64 20.18 20.18 0 0 1-7.73 3.8 21.84 21.84 0 0 0 4.23 3.93 21.84 21.84 0 0 1-6.85 2.77 22.27 22.27 0 0 0 17.35 8.45c6.85.15 13.12-3.2 17.2-8.3ZM136.24 22.8c.73-.43 1.31-1.01 1.9-1.6a7.63 7.63 0 0 1-3.36-1.45 5.08 5.08 0 0 0 1.9-1.6 5.78 5.78 0 0 1-4.67-4.38 5.62 5.62 0 0 1-4.37 4.37 4.28 4.28 0 0 0 1.75 1.46 6 6 0 0 1-3.06 1.46 6.2 6.2 0 0 0 1.74 1.6c-.87.58-1.74.88-2.77 1.17a9.13 9.13 0 0 0 7 3.5 9 9 0 0 0 7-3.36 14.9 14.9 0 0 1-3.06-1.16ZM105.04 12.31a5.4 5.4 0 0 0 4.23-2.04c-.58-.15-1.31-.3-1.75-.58.44-.3.87-.59 1.17-1.02a5.12 5.12 0 0 1-2.05-.88c.44-.3.88-.58 1.17-1.02A3.58 3.58 0 0 1 104.89 4a3.6 3.6 0 0 1-2.77 2.77c.3.44.73.73 1.02.87-.58.44-1.16.73-1.9.88.3.44.6.73 1.03 1.02a8.9 8.9 0 0 1-1.75.73 6.54 6.54 0 0 0 4.52 2.04Z" fill="#06C0B9"/>
    <path d="M6.76 84.98v5.57H0v-5.57h6.76Zm0 9.37v24.61H0v-24.6h6.76Zm21.27-10.18c3.97 0 7.3 1.12 10 3.35 2.7 2.24 4.25 5.2 4.66 8.88h-7.23a6.54 6.54 0 0 0-2.52-4.24 7.63 7.63 0 0 0-4.9-1.7c-2.93 0-5.2 1.04-6.81 3.13-1.62 2.1-2.43 4.94-2.43 8.52 0 3.5.82 6.26 2.45 8.3 1.64 2.06 3.9 3.08 6.78 3.08 2.16 0 3.9-.66 5.24-1.98 1.33-1.31 2.16-3.2 2.47-5.64h7.24c-.38 4.32-1.93 7.71-4.64 10.19-2.71 2.47-6.15 3.71-10.3 3.71-4.99 0-9.02-1.64-12.1-4.93-3.07-3.28-4.61-7.52-4.61-12.73 0-5.27 1.52-9.57 4.57-12.92 3.04-3.35 7.09-5.02 12.13-5.02Zm26.09.8v12.81h.14a8.25 8.25 0 0 1 3.1-3 8.34 8.34 0 0 1 4.13-1.1c3.15 0 5.42.8 6.83 2.39 1.42 1.58 2.12 4.1 2.12 7.52v15.37h-6.76v-14c0-2-.32-3.48-.97-4.47-.65-.98-1.77-1.47-3.36-1.47-1.8 0-3.13.55-3.97 1.64-.84 1.1-1.26 2.9-1.26 5.4v12.9h-6.76V84.98h6.76Zm32.8 8.72c7.16.03 10.75 2.36 10.75 7v13.04c0 2.4.28 4.15.85 5.23h-6.85a9.9 9.9 0 0 1-.48-2.38c-2 2.03-4.76 3.05-8.28 3.05-2.57 0-4.6-.65-6.11-1.95-1.51-1.3-2.26-3.11-2.26-5.43 0-2.25.71-4 2.14-5.23 1.46-1.3 4.1-2.13 7.95-2.48 2.73-.29 4.45-.64 5.18-1.07a2.13 2.13 0 0 0 1.1-1.98c0-1.1-.33-1.93-1-2.47-.67-.54-1.78-.81-3.33-.81-1.43 0-2.5.3-3.24.88-.73.59-1.16 1.53-1.28 2.83H75.3a7.52 7.52 0 0 1 3.33-6.14c2.06-1.4 4.82-2.1 8.28-2.1Zm-5.63 18.28c0 2.09 1.38 3.14 4.15 3.14 3.61-.03 5.44-1.9 5.47-5.57v-2.62c-.54.54-1.9.94-4.1 1.19-1.9.22-3.3.61-4.18 1.17-.9.55-1.34 1.45-1.34 2.69Zm33.42-18.28c3.33 0 6.04.85 8.14 2.54a9.13 9.13 0 0 1 3.42 6.79h-6.61c-.45-2.83-2.11-4.24-5-4.24a4.9 4.9 0 0 0-4.21 2.19c-1.03 1.46-1.55 3.4-1.55 5.8 0 2.32.5 4.2 1.48 5.62a4.74 4.74 0 0 0 4.14 2.14c3.07 0 4.87-1.66 5.38-5h6.52c-.45 3.28-1.71 5.78-3.79 7.5-2.08 1.73-4.77 2.6-8.07 2.6-3.64 0-6.63-1.17-8.94-3.5-2.32-2.33-3.48-5.37-3.48-9.11 0-4.07 1.14-7.3 3.43-9.71 2.28-2.42 5.33-3.62 9.14-3.62Zm26.84 0c7.17.03 10.76 2.36 10.76 7v13.04c0 2.4.28 4.15.85 5.23h-6.85a9.87 9.87 0 0 1-.47-2.38c-2 2.03-4.77 3.05-8.29 3.05-2.57 0-4.6-.65-6.11-1.95-1.51-1.3-2.26-3.11-2.26-5.43 0-2.25.71-4 2.14-5.23 1.46-1.3 4.1-2.13 7.95-2.48 2.73-.29 4.45-.64 5.19-1.07a2.13 2.13 0 0 0 1.09-1.98c0-1.1-.33-1.93-1-2.47-.67-.54-1.78-.81-3.33-.81-1.43 0-2.5.3-3.24.88-.73.59-1.16 1.53-1.28 2.83h-6.76a7.52 7.52 0 0 1 3.33-6.14c2.06-1.4 4.82-2.1 8.28-2.1Zm-5.62 18.28c0 2.09 1.38 3.14 4.15 3.14 3.61-.03 5.44-1.9 5.47-5.57v-2.62c-.54.54-1.9.94-4.1 1.19-1.9.22-3.3.61-4.18 1.17-.9.55-1.34 1.45-1.34 2.69Zm35.99-18.28c.57 0 1.06.08 1.47.24v6.28c-.73-.16-1.54-.24-2.42-.24-4.45 0-6.67 2.63-6.67 7.9v11.1h-6.76V94.34h6.43v4.57h.1a8.34 8.34 0 0 1 3.16-3.8c1.44-.96 3-1.43 4.69-1.43Zm15.47 0c7.17.03 10.75 2.36 10.75 7v13.04c0 2.4.29 4.15.86 5.23h-6.85a9.92 9.92 0 0 1-.48-2.38c-2 2.03-4.76 3.05-8.28 3.05-2.57 0-4.61-.65-6.12-1.95-1.5-1.3-2.26-3.11-2.26-5.43 0-2.25.72-4 2.14-5.23 1.46-1.3 4.11-2.13 7.95-2.48 2.73-.29 4.46-.64 5.19-1.07a2.13 2.13 0 0 0 1.1-1.98c0-1.1-.34-1.93-1-2.47-.67-.54-1.78-.81-3.34-.81-1.42 0-2.5.3-3.23.88-.73.59-1.16 1.53-1.29 2.83h-6.76a7.52 7.52 0 0 1 3.33-6.14c2.07-1.4 4.83-2.1 8.29-2.1Zm-5.62 18.28c0 2.09 1.38 3.14 4.14 3.14 3.62-.03 5.44-1.9 5.47-5.57v-2.62c-.53.54-1.9.94-4.09 1.19-1.9.22-3.3.61-4.19 1.17-.89.55-1.33 1.45-1.33 2.69Z" fill="#3B4848"/>
    <path d="M24.93 138.28c.04.1-.02.16-.12.16h-.55c-.1 0-.14-.06-.18-.16L23.7 137h-2.58l-.37 1.27c-.03.1-.09.16-.19.16h-.54c-.1 0-.15-.06-.12-.16l1.97-6.52c.03-.1.1-.15.19-.15h.69c.09 0 .16.06.19.15l1.98 6.52Zm-3.59-2.01h2.15l-1.07-3.63-1.08 3.63Zm11.25 1.4c.1 0 .14.05.14.15v.48c0 .1-.04.14-.14.14h-3.4c-.09 0-.14-.04-.14-.14v-6.55c0-.1.05-.14.15-.14h.56c.1 0 .14.05.14.14v5.92h2.69Zm9.01-6.06c.11 0 .18.06.18.16v4.7c0 1.3-.66 2.02-1.96 2.02h-.83c-1.3 0-1.97-.72-1.97-2.03v-4.69c0-.1.06-.16.17-.16h.52c.1 0 .16.06.16.16v4.7c0 .86.36 1.25 1.12 1.25h.83c.76 0 1.11-.39 1.11-1.26v-4.69c0-.1.06-.16.17-.16h.5Zm9.31 3.2c.11 0 .17.06.17.16v1.5c0 1.29-.67 2.02-1.96 2.02h-.75c-1.3 0-1.97-.73-1.97-2.03v-2.87c0-1.3.68-2.03 1.97-2.03h.75c1.23 0 1.9.66 1.96 1.9 0 .1-.06.16-.17.16h-.5c-.11 0-.18-.06-.18-.17-.04-.8-.38-1.12-1.11-1.12h-.75c-.8 0-1.12.36-1.12 1.26v2.87c0 .9.32 1.26 1.12 1.26h.75c.79 0 1.11-.36 1.11-1.26v-.93h-.9c-.1 0-.16-.06-.16-.16v-.4c0-.1.06-.17.16-.17h1.58Zm9.3-3.2c.1 0 .17.06.17.16v4.7c0 1.3-.66 2.02-1.96 2.02h-.83c-1.3 0-1.97-.72-1.97-2.03v-4.69c0-.1.06-.16.17-.16h.52c.1 0 .16.06.16.16v4.7c0 .86.36 1.25 1.12 1.25h.83c.76 0 1.11-.39 1.11-1.26v-4.69c0-.1.06-.16.17-.16h.5Zm8.6.77h-2.94v2.32h2.25c.1 0 .15.05.15.15v.48c0 .1-.05.14-.15.14h-2.25v2.2h3c.09 0 .14.05.14.15v.48c0 .1-.05.14-.15.14h-3.7c-.09 0-.14-.04-.14-.14v-6.55c0-.1.05-.14.15-.14h3.64c.1 0 .15.05.15.14v.48c0 .1-.05.15-.15.15Zm8.18 5.3c.1 0 .15.04.15.14v.48c0 .1-.05.14-.15.14H73.6c-.1 0-.15-.04-.15-.14v-6.55c0-.1.05-.14.15-.14h.56c.1 0 .14.05.14.14v5.92H77Zm13.43-6.07c1.25 0 1.92.68 1.92 1.93v2.97c0 1.25-.67 1.93-1.92 1.93h-2.44c-.1 0-.14-.04-.14-.14v-6.55c0-.1.04-.14.14-.14h2.44Zm1.07 4.9v-2.97c0-.85-.32-1.16-1.07-1.16H88.7v5.3h1.73c.75 0 1.07-.32 1.07-1.17Zm9.08-4.13h-2.94v2.32h2.25c.1 0 .15.05.15.15v.48c0 .1-.05.14-.15.14h-2.25v2.2h3c.09 0 .14.05.14.15v.48c0 .1-.05.14-.15.14h-3.69c-.1 0-.15-.04-.15-.14v-6.55c0-.1.05-.14.15-.14h3.64c.1 0 .15.05.15.14v.48c0 .1-.05.15-.15.15Zm15.31 3.98c.11 0 .17.06.17.17-.06 1.29-.72 1.96-1.96 1.96h-.76c-1.28 0-1.96-.73-1.96-2.03v-2.87c0-1.3.67-2.03 1.96-2.03h.76c1.24 0 1.9.67 1.96 1.96 0 .1-.06.17-.17.17h-.5c-.11 0-.18-.06-.18-.17-.04-.87-.37-1.19-1.11-1.19h-.76c-.79 0-1.1.36-1.1 1.26v2.87c0 .9.31 1.26 1.1 1.26h.76c.74 0 1.07-.32 1.1-1.19 0-.1.08-.17.19-.17h.5Zm8.95-4.75c.1 0 .15.05.15.14v6.55c0 .1-.05.14-.15.14h-.55c-.1 0-.15-.04-.15-.14v-2.83h-2.69v2.83c0 .1-.05.14-.14.14h-.56c-.1 0-.15-.04-.15-.14v-6.55c0-.1.05-.14.15-.14h.56c.1 0 .14.05.14.14v2.95h2.69v-2.95c0-.1.05-.14.15-.14h.55Zm6.75-.48c-.1 0-.16-.07-.1-.18l.62-1.12c.06-.12.1-.18.2-.18h.76c.1 0 .18.07.1.18l-.88 1.12c-.08.11-.12.18-.22.18h-.48Zm2.74 7.15c.04.1-.02.16-.12.16h-.55c-.1 0-.14-.06-.18-.16l-.37-1.27h-2.58l-.37 1.27c-.03.1-.09.16-.19.16h-.55c-.1 0-.14-.06-.11-.16l1.97-6.52c.03-.1.1-.15.19-.15h.69c.09 0 .16.06.19.15l1.98 6.52Zm-3.59-2.01h2.15l-1.07-3.63-1.08 3.63Zm12.32.1c.1 0 .17.05.17.16-.06 1.29-.72 1.96-1.97 1.96h-.75c-1.29 0-1.96-.73-1.96-2.03v-2.87c0-1.3.67-2.03 1.96-2.03h.75c1.25 0 1.9.67 1.97 1.96 0 .1-.06.17-.17.17h-.5c-.11 0-.18-.06-.18-.17-.04-.87-.37-1.19-1.12-1.19h-.75c-.79 0-1.11.36-1.11 1.26v2.87c0 .9.32 1.26 1.11 1.26h.75c.75 0 1.08-.32 1.12-1.19 0-.1.07-.17.17-.17h.51Zm9.21 1.9c.04.11-.02.17-.11.17h-.55c-.1 0-.15-.06-.19-.16l-.37-1.27h-2.57l-.38 1.27c-.03.1-.08.16-.18.16h-.55c-.1 0-.15-.06-.12-.16l1.98-6.52c.03-.1.1-.15.18-.15h.7c.08 0 .15.06.18.15l1.98 6.52Zm-3.58-2h2.15l-1.08-3.63-1.07 3.63Zm12.53 1.98c.05.12 0 .2-.13.2h-.55c-.09 0-.17-.04-.2-.13l-.98-2.23-.25.01h-1.67v2.2c0 .1-.05.14-.14.14h-.56c-.1 0-.15-.04-.15-.14v-6.55c0-.1.05-.14.15-.14h2.37c1.27 0 1.94.68 1.94 1.95v.59c0 .85-.3 1.44-.9 1.73l1.07 2.37Zm-3.78-2.92h1.67c.77 0 1.09-.31 1.09-1.18v-.59c0-.87-.32-1.18-1.09-1.18h-1.67v2.95Zm12.9 2.95c.04.1-.02.16-.12.16h-.55c-.1 0-.14-.06-.18-.16l-.37-1.27h-2.58l-.37 1.27c-.03.1-.1.16-.19.16h-.54c-.1 0-.15-.06-.12-.16l1.97-6.52c.03-.1.1-.15.19-.15h.69c.09 0 .16.06.19.15l1.98 6.52Zm-3.59-2.01h2.15l-1.07-3.63-1.08 3.63Zm10.2-1.76c1.07.23 2.16.58 2.16 1.98 0 1.3-.67 2-1.96 2h-.73c-1.23 0-1.9-.66-1.96-1.86 0-.11.06-.17.17-.17h.5c.11 0 .18.06.18.17.04.77.37 1.1 1.11 1.1h.73c.79 0 1.11-.34 1.11-1.24 0-.9-.6-1.03-1.34-1.2l-.43-.1c-1.15-.25-1.95-.61-1.95-1.85 0-1.22.7-1.78 1.97-1.78h.48c1.21 0 1.86.66 1.92 1.84 0 .1-.06.16-.17.16h-.5c-.1 0-.17-.06-.19-.16-.03-.76-.35-1.07-1.06-1.07h-.48c-.78 0-1.12.19-1.12 1 0 .8.35.9 1.12 1.08l.43.1Z" fill="#06C0B9"/>
  </g>
  <defs>
    <clipPath id="a">
      <path fill="#fff" transform="translate(0 .02)" d="M0 0h199v138.47H0z"/>
    </clipPath>
  </defs>
</svg>