<svg width="111" height="81" fill="none" xmlns="http://www.w3.org/2000/svg">
  <path d="M87.82 34.9c-4.88-1.9-22.16-4.94-22.16-9.88 0-4.93 38.02-14.43 38.02-14.43s-33.95 5.32-45.54 8.93c-11.59 3.6-5.9 10.25 2.65 13.86 8.53 3.61 7.31 5.9 7.31 5.9-1.42 7.02-43.9 15-63.83 18.61l29.68 22.8c7.73-2.28 20.33-5.32 49.6-17.48 43.1-18.43 9.36-26.4 4.27-28.3Z" fill="#06C0B9"/>
  <path d="M48.18 34.52a30.3 30.3 0 0 1-10.16-3.42 27.5 27.5 0 0 0 6.3-5.32 26.12 26.12 0 0 1-11.39-4.74c2.65-.95 4.88-2.85 6.71-4.94-7.93-1.33-14.23-7.03-16.06-14.25-1.62 7.03-7.72 12.54-15.25 14.06 1.63 1.9 3.66 3.6 6.1 4.75a28.98 28.98 0 0 1-10.77 4.93 29.78 29.78 0 0 0 5.9 5.13A31.7 31.7 0 0 1 0 34.33a31.88 31.88 0 0 0 24.2 11.02c9.55.2 18.29-4.18 23.98-10.83Zm58.55-9.12c1.02-.56 1.83-1.32 2.64-2.08a11.02 11.02 0 0 1-4.67-1.9c1.01-.57 2.03-1.14 2.64-2.1-3.25-.56-5.9-2.84-6.5-5.7a7.6 7.6 0 0 1-6.1 5.7 5.9 5.9 0 0 0 2.44 1.9 8.63 8.63 0 0 1-4.27 1.9 8.48 8.48 0 0 0 2.44 2.1 13.5 13.5 0 0 1-3.87 1.51 12.9 12.9 0 0 0 19.52.19 21.68 21.68 0 0 1-4.27-1.52Zm-43.5-13.67a7.72 7.72 0 0 0 5.9-2.66c-.82-.2-1.84-.38-2.45-.76a5.44 5.44 0 0 0 1.63-1.33 7.4 7.4 0 0 1-2.85-1.14 5.44 5.44 0 0 0 1.63-1.33C65.05 4.13 63.43 2.8 63.02.9a4.86 4.86 0 0 1-3.86 3.6c.4.58 1.02.96 1.42 1.15a6.5 6.5 0 0 1-2.64 1.14c.4.57.81.95 1.42 1.33-.81.38-1.62.76-2.44.95a9.4 9.4 0 0 0 6.3 2.66Z" fill="#06C0B9"/>
</svg>